<svg width="36" height="32" viewBox="0 0 36 32" fill="none" xmlns="http://www.w3.org/2000/svg">
<path d="M24.289 9L32.289 4" stroke="#4891FF" stroke-width="6" stroke-linecap="round"/>
<path d="M15.54 12.336C15.092 11.5147 14.476 10.8893 13.692 10.46C12.908 10.0307 11.9933 9.816 10.948 9.816C9.79067 9.816 8.764 10.0773 7.868 10.6C6.972 11.1227 6.272 11.8693 5.768 12.84C5.264 13.8107 5.012 14.9307 5.012 16.2C5.012 17.5067 5.264 18.6453 5.768 19.616C6.29067 20.5867 7.00933 21.3333 7.924 21.856C8.83867 22.3787 9.90267 22.64 11.116 22.64C12.6093 22.64 13.832 22.248 14.784 21.464C15.736 20.6613 16.3613 19.5507 16.66 18.132H9.94V15.136H20.524V18.552C20.2627 19.9147 19.7027 21.1747 18.844 22.332C17.9853 23.4893 16.8747 24.4227 15.512 25.132C14.168 25.8227 12.656 26.168 10.976 26.168C9.09067 26.168 7.38267 25.748 5.852 24.908C4.34 24.0493 3.14533 22.864 2.268 21.352C1.40933 19.84 0.98 18.1227 0.98 16.2C0.98 14.2773 1.40933 12.56 2.268 11.048C3.14533 9.51733 4.34 8.332 5.852 7.492C7.38267 6.63333 9.08133 6.204 10.948 6.204C13.1507 6.204 15.064 6.74533 16.688 7.828C18.312 8.892 19.432 10.3947 20.048 12.336H15.54Z" fill="#131316"/>
</svg>
